<?xml version="1.0" standalone="no"?>
<!DOCTYPE svg PUBLIC "-//W3C//DTD SVG 20010904//EN"
 "http://www.w3.org/TR/2001/REC-SVG-20010904/DTD/svg10.dtd">
<svg version="1.0" xmlns="http://www.w3.org/2000/svg"
 width="981.000000pt" height="982.000000pt" viewBox="0 0 981.000000 982.000000"
 preserveAspectRatio="xMidYMid meet">

<g transform="translate(0.000000,982.000000) scale(0.100000,-0.100000)"
fill="#000000" stroke="none">
<path d="M555 9800 c-100 -4 -164 -12 -192 -23 -168 -64 -299 -218 -336 -392
-9 -47 -12 -1001 -12 -4516 l0 -4456 37 -74 c63 -127 151 -216 283 -286 l70
-38 2423 -3 2422 -2 0 1900 0 1900 -635 0 -635 0 0 735 0 735 634 0 634 0 5
658 c5 667 10 770 47 953 79 390 232 685 485 934 131 129 258 219 420 299 193
96 345 143 590 182 240 39 1444 9 1490 -37 6 -6 11 -246 13 -664 l3 -655 -283
0 c-156 -1 -393 -5 -528 -9 -222 -8 -252 -11 -325 -35 -93 -30 -189 -90 -240
-149 -20 -23 -54 -78 -76 -122 -36 -73 -40 -90 -49 -195 -5 -63 -12 -350 -15
-637 l-7 -522 721 -3 c480 -2 723 -6 730 -13 8 -8 -8 -157 -49 -485 -77 -611
-120 -931 -126 -952 -5 -17 -44 -18 -640 -18 l-634 0 0 -1900 0 -1901 1328 3
1327 3 64 38 c147 86 190 130 267 265 l44 77 0 4508 0 4509 -45 87 c-61 119
-147 204 -265 266 l-88 45 -4354 -2 c-2394 -1 -4420 -5 -4503 -8z"/>
</g>
</svg>
