<?xml version="1.0" standalone="no"?>
<!DOCTYPE svg PUBLIC "-//W3C//DTD SVG 20010904//EN"
 "http://www.w3.org/TR/2001/REC-SVG-20010904/DTD/svg10.dtd">
<svg version="1.0" xmlns="http://www.w3.org/2000/svg"
 width="225.000000pt" height="224.000000pt" viewBox="0 0 225.000000 224.000000"
 preserveAspectRatio="xMidYMid meet">

<g transform="translate(0.000000,224.000000) scale(0.100000,-0.100000)"
fill="#000000" stroke="none">
<path d="M2 1678 c2 -512 2 -536 8 -268 6 263 10 303 29 370 31 105 76 184
148 260 111 118 246 177 438 190 79 5 7 7 -257 9 l-368 1 2 -562z"/>
<path d="M1645 2229 c330 -26 548 -225 595 -544 4 -29 8 78 9 253 l1 302 -352
-1 c-259 -1 -326 -4 -253 -10z"/>
<path d="M715 2031 c-207 -12 -299 -43 -382 -134 -52 -56 -78 -108 -100 -194
-15 -60 -17 -130 -18 -583 0 -458 2 -523 18 -584 46 -184 159 -284 354 -317
104 -17 996 -13 1099 5 105 18 181 55 237 115 55 59 82 109 105 198 15 60 17
127 17 583 0 457 -2 523 -18 584 -46 182 -159 284 -349 316 -79 13 -776 21
-963 11z m1086 -198 c68 -40 84 -142 32 -204 -72 -85 -218 -45 -239 66 -8 44
24 113 63 137 36 22 107 23 144 1z m-496 -164 c231 -72 405 -305 405 -544 0
-282 -206 -523 -488 -572 -186 -32 -365 27 -503 168 -103 103 -169 259 -169
399 0 127 62 283 150 382 152 170 387 235 605 167z"/>
<path d="M1023 1476 c-104 -34 -185 -106 -232 -205 -22 -48 -26 -69 -26 -151
0 -88 3 -101 33 -162 38 -78 101 -138 182 -177 47 -22 68 -26 150 -26 82 0
103 4 152 27 79 37 142 98 181 177 30 61 32 73 32 166 0 95 -2 103 -34 163
-68 125 -177 194 -316 199 -49 2 -96 -3 -122 -11z"/>
<path d="M2 473 l-2 -473 353 1 c216 1 321 5 272 9 -113 10 -177 26 -273 71
-158 73 -274 220 -318 404 -11 45 -19 139 -24 265 -5 156 -7 100 -8 -277z"/>
<path d="M2240 572 c0 -55 -26 -147 -64 -227 -39 -84 -127 -183 -208 -235 -74
-48 -201 -89 -308 -99 -61 -6 10 -9 253 -10 l337 -1 0 305 c0 168 -2 305 -5
305 -3 0 -5 -17 -5 -38z"/>
</g>
</svg>
