<?xml version="1.0" standalone="no"?>
<!DOCTYPE svg PUBLIC "-//W3C//DTD SVG 20010904//EN"
 "http://www.w3.org/TR/2001/REC-SVG-20010904/DTD/svg10.dtd">
<svg version="1.0" xmlns="http://www.w3.org/2000/svg"
 width="1083.000000pt" height="1083.000000pt" viewBox="0 0 1083.000000 1083.000000"
 preserveAspectRatio="xMidYMid meet">

<g transform="translate(0.000000,1083.000000) scale(0.100000,-0.100000)"
fill="#000000" stroke="none">
<path d="M2120 10809 c-310 -42 -530 -109 -800 -244 -450 -226 -830 -605
-1054 -1054 -139 -277 -203 -489 -245 -811 -21 -153 -21 -190 -21 -3285 0
-2774 2 -3145 16 -3265 65 -561 301 -1057 689 -1445 323 -323 752 -557 1190
-649 283 -59 103 -56 3520 -56 3096 0 3132 0 3285 21 201 26 315 51 475 104
363 119 662 303 936 575 238 236 394 463 518 753 95 219 145 409 180 677 21
153 21 189 21 3283 0 3346 2 3192 -46 3456 -68 371 -242 749 -484 1056 -90
115 -298 318 -415 406 -354 265 -736 420 -1185 479 -153 20 -198 20 -3300 19
-2992 -1 -3152 -2 -3280 -20z m4785 -1309 c524 -22 768 -58 1064 -156 353
-118 595 -266 847 -518 257 -257 402 -496 519 -851 98 -295 133 -538 155
-1060 13 -312 13 -2678 0 -2990 -22 -522 -57 -765 -155 -1060 -117 -355 -263
-594 -519 -851 -257 -256 -491 -399 -850 -519 -293 -97 -537 -133 -1061 -155
-312 -13 -2678 -13 -2990 0 -525 22 -768 58 -1064 156 -353 118 -595 266 -847
518 -257 257 -402 496 -519 851 -149 451 -168 747 -168 2555 0 1377 10 1750
59 2090 61 422 213 808 436 1103 34 45 120 141 192 213 273 273 553 436 946
549 325 94 616 122 1410 135 566 10 2222 3 2545 -10z"/>
<path d="M4095 8774 c-583 -23 -776 -47 -1015 -125 -441 -145 -754 -458 -899
-899 -63 -192 -92 -377 -113 -710 -18 -292 -18 -2948 0 -3240 28 -439 76 -662
197 -915 124 -259 351 -486 610 -610 253 -121 476 -169 915 -197 292 -18 2948
-18 3240 0 333 21 518 50 710 113 501 164 831 541 949 1084 69 314 76 518 76
2145 0 1627 -7 1831 -76 2145 -119 550 -451 924 -964 1088 -184 59 -364 88
-675 108 -150 10 -2743 21 -2955 13z m3708 -732 c99 -49 185 -133 229 -223 76
-156 63 -345 -33 -488 -52 -77 -106 -125 -192 -166 -193 -94 -405 -58 -558 94
-152 153 -188 365 -94 558 59 121 153 205 283 250 58 21 81 23 174 20 103 -3
111 -5 191 -45z m-2165 -533 c1066 -117 1872 -1017 1872 -2089 0 -1162 -938
-2100 -2100 -2100 -1162 0 -2100 938 -2100 2100 0 901 570 1697 1423 1989 125
43 313 86 437 100 110 12 356 13 468 0z"/>
<path d="M5275 6784 c-453 -64 -795 -278 -1027 -640 -75 -117 -145 -292 -180
-454 -30 -136 -30 -404 0 -540 122 -552 520 -950 1072 -1072 136 -30 404 -30
540 0 551 121 951 521 1072 1072 30 136 30 404 0 540 -121 551 -527 956 -1072
1071 -91 20 -334 33 -405 23z"/>
</g>
</svg>
