<?xml version="1.0" standalone="no"?>
<!DOCTYPE svg PUBLIC "-//W3C//DTD SVG 20010904//EN"
 "http://www.w3.org/TR/2001/REC-SVG-20010904/DTD/svg10.dtd">
<svg version="1.0" xmlns="http://www.w3.org/2000/svg"
 width="255.000000pt" height="197.000000pt" viewBox="0 0 255.000000 197.000000"
 preserveAspectRatio="xMidYMid meet">

<g transform="translate(0.000000,197.000000) scale(0.100000,-0.100000)"
fill="#000000" stroke="none">
<path d="M380 1836 c-154 -34 -276 -158 -309 -314 -7 -35 -11 -223 -11 -560 0
-427 2 -517 16 -567 31 -120 110 -215 222 -268 l67 -32 910 0 910 0 67 32
c112 53 191 148 222 268 14 50 16 140 16 567 0 337 -4 525 -11 560 -35 162
-163 288 -323 317 -89 16 -1702 14 -1776 -3z m1005 -555 c187 -122 348 -231
359 -241 40 -40 24 -53 -345 -295 -194 -126 -361 -231 -371 -233 -11 -2 -28 4
-39 14 -18 16 -19 36 -19 482 0 426 1 467 17 484 10 11 26 18 38 15 11 -2 173
-104 360 -226z"/>
</g>
</svg>
